<svg xmlns="http://www.w3.org/2000/svg" width="32" height="32">
  <path d="M31.881 12.557c-.277-.799-.988-1.384-1.844-1.511l-8.326-1.238-3.619-7.514C17.711 1.505 16.896 1 16 1s-1.711.505-2.092 1.294l-3.619 7.514-8.327 1.238c-.855.127-1.566.712-1.842 1.511-.275.801-.067 1.683.537 2.285l6.102 6.092-1.415 8.451c-.144.851.225 1.705.948 2.203.397.273.864.412 1.331.412.384 0 .769-.094 1.118-.281L16 27.811l7.26 3.908c.349.187.734.281 1.117.281.467 0 .934-.139 1.332-.412.723-.498 1.09-1.352.947-2.203l-1.416-8.451 6.104-6.092c.603-.603.81-1.485.537-2.285zm-8.293 6.806c-.512.51-.744 1.229-.627 1.934l1.416 8.451-7.26-3.906a2.3479 2.3479 0 00-1.118-.281c-.384 0-.769.094-1.117.281l-7.26 3.906 1.416-8.451c.118-.705-.114-1.424-.626-1.934L2.31 13.271l8.326-1.24c.761-.113 1.416-.589 1.743-1.268L16 3.251l3.62 7.513c.328.679.982 1.154 1.742 1.268l8.328 1.24-6.102 6.091z"/>
</svg>
