<svg xmlns="http://www.w3.org/2000/svg" width="24" height="24">
  <path d="M11.148 4.374c.073-.123.185-.242.334-.332.236-.143.506-.178.756-.116s.474.216.614.448l8.466 14.133c.07.12.119.268.128.434-.015.368-.119.591-.283.759-.18.184-.427.298-.693.301L3.533 20a.975.975 0 01-.481-.134c-.239-.138-.399-.359-.466-.607s-.038-.519.092-.745zM9.432 3.346l-8.47 14.14c-.422.731-.506 1.55-.308 2.29s.68 1.408 1.398 1.822c.464.268.976.4 1.475.402H20.47c.839-.009 1.587-.354 2.123-.902s.864-1.303.855-2.131c-.006-.536-.153-1.044-.406-1.474L14.568 3.346c-.432-.713-1.11-1.181-1.854-1.363s-1.561-.081-2.269.349c-.429.26-.775.615-1.012 1.014z"/>
</svg>
